# xmcd
#
# Track frame offsets:
#	150
#	18338
#	37051
#	58237
#	76385
#	101398
#	119038
#	138539
#	156872
#	176418
#	192358
#	220471
#
# Disc length: 3189 seconds
#
# Revision: 0
# Processed by: cddbd v1.5.2PL0 Copyright (c) Steve Scherf et al.
# Submitted via: dBpowerAMP V4.0
#
DISCID=ae0c730c
DTITLE=Highway Down - Some New Horizon
DYEAR=2012
DGENRE=Country
TTITLE0=Blues Suit Me Just Fine
TTITLE1=Boy Like Me
TTITLE2=All I Expected
TTITLE3=Upside of Down
TTITLE4=In A Southern Town
TTITLE5=Caroline
TTITLE6=I'm Alone
TTITLE7=Any Town
TTITLE8=Here and Now
TTITLE9=No More Time
TTITLE10=Live For The Ride
TTITLE11=Live For The Ride (radio edit)
EXTD=
EXTT0=
EXTT1=
EXTT2=
EXTT3=
EXTT4=
EXTT5=
EXTT6=
EXTT7=
EXTT8=
EXTT9=
EXTT10=
EXTT11=
PLAYORDER=
